<mxfile host="app.diagrams.net" modified="2023-07-21T07:30:18.424Z" agent="Mozilla/5.0 (Windows NT 10.0; Win64; x64) AppleWebKit/537.36 (KHTML, like Gecko) Chrome/115.0.0.0 Safari/537.36" etag="NllG4m8aBIzrWroqq_R9" version="21.6.5" type="google">
  <diagram name="Page-1" id="E0OsLZeYmrnMxUYCCxl5">
    <mxGraphModel grid="1" page="1" gridSize="10" guides="1" tooltips="1" connect="1" arrows="1" fold="1" pageScale="1" pageWidth="850" pageHeight="1100" math="0" shadow="0">
      <root>
        <mxCell id="0" />
        <mxCell id="1" parent="0" />
        <mxCell id="a749DlLRQwKyg0g7p_3j-25" value="" style="rounded=1;whiteSpace=wrap;html=1;" vertex="1" parent="1">
          <mxGeometry x="300" y="80" width="230" height="600" as="geometry" />
        </mxCell>
        <mxCell id="a749DlLRQwKyg0g7p_3j-2" value="Customer" style="shape=umlActor;verticalLabelPosition=bottom;verticalAlign=top;html=1;" vertex="1" parent="1">
          <mxGeometry x="90" y="320" width="30" height="60" as="geometry" />
        </mxCell>
        <mxCell id="a749DlLRQwKyg0g7p_3j-3" value="create Saving Account" style="ellipse;whiteSpace=wrap;html=1;" vertex="1" parent="1">
          <mxGeometry x="350" y="150" width="140" height="70" as="geometry" />
        </mxCell>
        <mxCell id="a749DlLRQwKyg0g7p_3j-4" value="Deposit money" style="ellipse;whiteSpace=wrap;html=1;" vertex="1" parent="1">
          <mxGeometry x="350" y="240" width="140" height="70" as="geometry" />
        </mxCell>
        <mxCell id="a749DlLRQwKyg0g7p_3j-5" value="Withdraw Money" style="ellipse;whiteSpace=wrap;html=1;" vertex="1" parent="1">
          <mxGeometry x="350" y="330" width="140" height="70" as="geometry" />
        </mxCell>
        <mxCell id="a749DlLRQwKyg0g7p_3j-6" value="Check Balance" style="ellipse;whiteSpace=wrap;html=1;" vertex="1" parent="1">
          <mxGeometry x="350" y="410" width="140" height="70" as="geometry" />
        </mxCell>
        <mxCell id="a749DlLRQwKyg0g7p_3j-7" value="Banking System&lt;br&gt;&amp;lt;&amp;lt;Savings Account&amp;gt;&amp;gt;" style="text;align=center;fontStyle=1;verticalAlign=middle;spacingLeft=3;spacingRight=3;strokeColor=none;rotatable=0;points=[[0,0.5],[1,0.5]];portConstraint=eastwest;html=1;" vertex="1" parent="1">
          <mxGeometry x="380" y="110" width="80" height="26" as="geometry" />
        </mxCell>
        <mxCell id="a749DlLRQwKyg0g7p_3j-8" value="Transfer money" style="ellipse;whiteSpace=wrap;html=1;" vertex="1" parent="1">
          <mxGeometry x="350" y="500" width="140" height="70" as="geometry" />
        </mxCell>
        <mxCell id="a749DlLRQwKyg0g7p_3j-10" value="Transaction history" style="ellipse;whiteSpace=wrap;html=1;" vertex="1" parent="1">
          <mxGeometry x="350" y="590" width="140" height="70" as="geometry" />
        </mxCell>
        <mxCell id="a749DlLRQwKyg0g7p_3j-14" value="" style="endArrow=none;html=1;rounded=0;entryX=-0.017;entryY=0.651;entryDx=0;entryDy=0;entryPerimeter=0;exitX=1;exitY=0.3333333333333333;exitDx=0;exitDy=0;exitPerimeter=0;" edge="1" parent="1" source="a749DlLRQwKyg0g7p_3j-2" target="a749DlLRQwKyg0g7p_3j-3">
          <mxGeometry width="50" height="50" relative="1" as="geometry">
            <mxPoint x="130" y="330" as="sourcePoint" />
            <mxPoint x="180" y="280" as="targetPoint" />
          </mxGeometry>
        </mxCell>
        <mxCell id="a749DlLRQwKyg0g7p_3j-15" value="" style="endArrow=none;html=1;rounded=0;entryX=0;entryY=0.5;entryDx=0;entryDy=0;" edge="1" parent="1" target="a749DlLRQwKyg0g7p_3j-4">
          <mxGeometry width="50" height="50" relative="1" as="geometry">
            <mxPoint x="120" y="340" as="sourcePoint" />
            <mxPoint x="358" y="206" as="targetPoint" />
          </mxGeometry>
        </mxCell>
        <mxCell id="a749DlLRQwKyg0g7p_3j-16" value="" style="endArrow=none;html=1;rounded=0;entryX=0;entryY=0.5;entryDx=0;entryDy=0;exitX=1;exitY=0.3333333333333333;exitDx=0;exitDy=0;exitPerimeter=0;" edge="1" parent="1" source="a749DlLRQwKyg0g7p_3j-2" target="a749DlLRQwKyg0g7p_3j-5">
          <mxGeometry width="50" height="50" relative="1" as="geometry">
            <mxPoint x="130" y="340" as="sourcePoint" />
            <mxPoint x="368" y="216" as="targetPoint" />
          </mxGeometry>
        </mxCell>
        <mxCell id="a749DlLRQwKyg0g7p_3j-17" value="" style="endArrow=none;html=1;rounded=0;entryX=-0.023;entryY=0.4;entryDx=0;entryDy=0;entryPerimeter=0;" edge="1" parent="1" target="a749DlLRQwKyg0g7p_3j-6">
          <mxGeometry width="50" height="50" relative="1" as="geometry">
            <mxPoint x="120" y="340" as="sourcePoint" />
            <mxPoint x="378" y="226" as="targetPoint" />
          </mxGeometry>
        </mxCell>
        <mxCell id="a749DlLRQwKyg0g7p_3j-18" value="" style="endArrow=none;html=1;rounded=0;entryX=0;entryY=0.36;entryDx=0;entryDy=0;entryPerimeter=0;exitX=1;exitY=0.3333333333333333;exitDx=0;exitDy=0;exitPerimeter=0;" edge="1" parent="1" source="a749DlLRQwKyg0g7p_3j-2" target="a749DlLRQwKyg0g7p_3j-8">
          <mxGeometry width="50" height="50" relative="1" as="geometry">
            <mxPoint x="130" y="340" as="sourcePoint" />
            <mxPoint x="388" y="236" as="targetPoint" />
          </mxGeometry>
        </mxCell>
        <mxCell id="a749DlLRQwKyg0g7p_3j-19" value="" style="endArrow=none;html=1;rounded=0;entryX=-0.006;entryY=0.343;entryDx=0;entryDy=0;entryPerimeter=0;exitX=1;exitY=0.3333333333333333;exitDx=0;exitDy=0;exitPerimeter=0;" edge="1" parent="1" source="a749DlLRQwKyg0g7p_3j-2" target="a749DlLRQwKyg0g7p_3j-10">
          <mxGeometry width="50" height="50" relative="1" as="geometry">
            <mxPoint x="170" y="390" as="sourcePoint" />
            <mxPoint x="398" y="246" as="targetPoint" />
          </mxGeometry>
        </mxCell>
        <mxCell id="a749DlLRQwKyg0g7p_3j-20" value="Bank" style="shape=umlActor;verticalLabelPosition=bottom;verticalAlign=top;html=1;" vertex="1" parent="1">
          <mxGeometry x="730" y="320" width="30" height="60" as="geometry" />
        </mxCell>
        <mxCell id="a749DlLRQwKyg0g7p_3j-26" value="" style="endArrow=none;html=1;rounded=0;entryX=0;entryY=0.3333333333333333;entryDx=0;entryDy=0;entryPerimeter=0;exitX=0.989;exitY=0.606;exitDx=0;exitDy=0;exitPerimeter=0;" edge="1" parent="1" source="a749DlLRQwKyg0g7p_3j-3" target="a749DlLRQwKyg0g7p_3j-20">
          <mxGeometry width="50" height="50" relative="1" as="geometry">
            <mxPoint x="550" y="363.9665079365079" as="sourcePoint" />
            <mxPoint x="750" y="336.03" as="targetPoint" />
          </mxGeometry>
        </mxCell>
        <mxCell id="a749DlLRQwKyg0g7p_3j-30" value="Approve or Reject" style="edgeLabel;html=1;align=center;verticalAlign=middle;resizable=0;points=[];" connectable="0" vertex="1" parent="a749DlLRQwKyg0g7p_3j-26">
          <mxGeometry x="0.1309" y="3" relative="1" as="geometry">
            <mxPoint as="offset" />
          </mxGeometry>
        </mxCell>
        <mxCell id="a749DlLRQwKyg0g7p_3j-27" value="" style="endArrow=none;html=1;rounded=0;entryX=0;entryY=0.3333333333333333;entryDx=0;entryDy=0;entryPerimeter=0;exitX=0.989;exitY=0.606;exitDx=0;exitDy=0;exitPerimeter=0;" edge="1" parent="1" target="a749DlLRQwKyg0g7p_3j-20">
          <mxGeometry width="50" height="50" relative="1" as="geometry">
            <mxPoint x="480" y="290" as="sourcePoint" />
            <mxPoint x="742" y="434.03" as="targetPoint" />
          </mxGeometry>
        </mxCell>
        <mxCell id="a749DlLRQwKyg0g7p_3j-31" value="Update balance" style="edgeLabel;html=1;align=center;verticalAlign=middle;resizable=0;points=[];" connectable="0" vertex="1" parent="a749DlLRQwKyg0g7p_3j-27">
          <mxGeometry x="-0.1954" y="1" relative="1" as="geometry">
            <mxPoint as="offset" />
          </mxGeometry>
        </mxCell>
        <mxCell id="a749DlLRQwKyg0g7p_3j-28" value="" style="endArrow=none;html=1;rounded=0;exitX=0.989;exitY=0.606;exitDx=0;exitDy=0;exitPerimeter=0;" edge="1" parent="1">
          <mxGeometry width="50" height="50" relative="1" as="geometry">
            <mxPoint x="490" y="372.99" as="sourcePoint" />
            <mxPoint x="730" y="340" as="targetPoint" />
          </mxGeometry>
        </mxCell>
        <mxCell id="a749DlLRQwKyg0g7p_3j-32" value="Update Balance&lt;br&gt;" style="edgeLabel;html=1;align=center;verticalAlign=middle;resizable=0;points=[];" connectable="0" vertex="1" parent="a749DlLRQwKyg0g7p_3j-28">
          <mxGeometry x="-0.1587" y="1" relative="1" as="geometry">
            <mxPoint as="offset" />
          </mxGeometry>
        </mxCell>
        <mxCell id="a749DlLRQwKyg0g7p_3j-29" value="" style="endArrow=none;html=1;rounded=0;entryX=0;entryY=0.3333333333333333;entryDx=0;entryDy=0;entryPerimeter=0;exitX=0.966;exitY=0.371;exitDx=0;exitDy=0;exitPerimeter=0;" edge="1" parent="1" source="a749DlLRQwKyg0g7p_3j-8" target="a749DlLRQwKyg0g7p_3j-20">
          <mxGeometry width="50" height="50" relative="1" as="geometry">
            <mxPoint x="490" y="515.97" as="sourcePoint" />
            <mxPoint x="752" y="660" as="targetPoint" />
          </mxGeometry>
        </mxCell>
        <mxCell id="a749DlLRQwKyg0g7p_3j-33" value="Update Balance" style="edgeLabel;html=1;align=center;verticalAlign=middle;resizable=0;points=[];" connectable="0" vertex="1" parent="a749DlLRQwKyg0g7p_3j-29">
          <mxGeometry x="-0.1748" y="-1" relative="1" as="geometry">
            <mxPoint as="offset" />
          </mxGeometry>
        </mxCell>
      </root>
    </mxGraphModel>
  </diagram>
</mxfile>
